<?xml version="1.0" encoding="utf-8"?>
<!-- Generator: Adobe Illustrator 19.1.0, SVG Export Plug-In . SVG Version: 6.00 Build 0)  -->
<!DOCTYPE svg PUBLIC "-//W3C//DTD SVG 1.1//EN" "http://www.w3.org/Graphics/SVG/1.1/DTD/svg11.dtd">
<svg version="1.1" id="Layer_1" xmlns="http://www.w3.org/2000/svg" xmlns:xlink="http://www.w3.org/1999/xlink" x="0px" y="0px"
	 viewBox="0 0 385.5 317" enable-background="new 0 0 385.5 317" xml:space="preserve">
<g>
	<polygon fill="#ED1C24" points="69,220.3 80.5,219 74.1,185.2 	"/>
	<polygon fill="#ED1C24" points="188.8,198.7 211.8,195.7 211.8,158.9 188.8,161 	"/>
	<path fill="#ED1C24" d="M361.4,229.8l-1.2-22.7l12.4-1.2l-0.9-42.2l-5.7-3.3L363.8,96l20.9-3L383.4,42l-40-40l-96.8,10.9l0.4,15.8
		l-0.3,0l-14.6-15.3l-42.5,4.1l0,0L60,29.2l-1.1,9.9l-0.2,0l-10-9.4L2.4,33l27.5,132.1L22,284.5l50.3,31l45.4-4.6l0.7-6l8.9,6
		l71.1-7l50.6-4.9l-0.3-10.3l0.2,0l11.7,9.1l117.2-11.3l-2-45.8L361.4,229.8z M225.9,20.8l2.8,81.5l45-9.3l1.5,33L192,139
		l-3.4-114.6L225.9,20.8z M87.6,268.6l-4.2-21.2l-18,2.5L63.1,270l-30,3l7.3-110.5L14.7,38.8l29.7-2.2l18.1,65.7L69.7,35l113.7-10.2
		l3.5,115.2l-82,12.5L103,109l-9.8,45.5l-35.2,5.6l43.2-4.3l11.5,82.8l-1.8-66.5l39.1-12.6l2.6,102.5L87.6,268.6z M150,151.3
		l-0.1,6.3l-39.1,8.6l0-11.1L150,151.3z M222.3,255.3l-25.1-32.8l-0.4,0.1l1,35.2l-39.2,3.8l-3-110.8l81.6-7.7l1.7,63.7l-10.7,11.4
		l16.5,15.5l-2.1-91.1l82.4-7.6l0.6,26.6l-43.9,4.3l0.6,15.5l31-3.4l1.1,22.4l-31.6,3.4l0.5,15.3l46-4.3l1.3,30.3L222.3,255.3z
		 M316.4,48.5l2.5,71.2l-36.5,5.5l-2.7-70.4l-21.4,2.5l-1-38.8l79.9-9l0.9,35.9L316.4,48.5z"/>
	<polygon fill="#ED1C24" points="156.2,71.7 128.2,74.7 128.2,116.3 156.2,112.3 	"/>
</g>
</svg>
